<svg width="1163" height="144" viewBox="0 0 1163 144" fill="none" xmlns="http://www.w3.org/2000/svg">
<path d="M149.4 84.2C149.4 104.6 142.6 119.667 129 129.4C115.533 139.133 97.5333 144 75 144C52.4667 144 34.4 139.133 20.8 129.4C7.33333 119.667 0.600001 104.467 0.600001 83.8V60.2C0.600001 46.6 3.8 35.3333 10.2 26.4C16.7333 17.3333 25.6 10.6667 36.8 6.39999C48 2.13333 60.7333 -7.62939e-06 75 -7.62939e-06C89.2667 -7.62939e-06 101.933 2.13333 113 6.39999C124.2 10.6667 133.067 17.2667 139.6 26.2C146.133 35.1333 149.4 46.3333 149.4 59.8V84.2ZM54.6 88C54.6 93.4667 56.4 97.6667 60 100.6C63.7333 103.533 68.7333 105 75 105C81.2667 105 86.2 103.533 89.8 100.6C93.5333 97.5333 95.4 93.2667 95.4 87.8V56.2C95.4 50.7333 93.5333 46.5333 89.8 43.6C86.2 40.5333 81.2667 39 75 39C68.7333 39 63.7333 40.4667 60 43.4C56.4 46.3333 54.6 50.5333 54.6 56V88ZM324.322 135.8C324.589 136.333 324.722 136.933 324.722 137.6C324.722 138.8 324.255 139.867 323.322 140.8C322.522 141.6 321.522 142 320.322 142H274.922C273.055 142 271.322 141.533 269.722 140.6C268.255 139.667 267.189 138.467 266.522 137L248.922 97.4H232.122V136.6C232.122 138.067 231.589 139.333 230.522 140.4C229.455 141.467 228.189 142 226.722 142H183.522C182.055 142 180.789 141.467 179.722 140.4C178.655 139.333 178.122 138.067 178.122 136.6V7.39999C178.122 5.93333 178.655 4.66666 179.722 3.59999C180.789 2.53332 182.055 1.99999 183.522 1.99999H261.322C273.322 1.99999 283.789 3.93333 292.722 7.8C301.789 11.6667 308.722 17.2667 313.522 24.6C318.322 31.9333 320.722 40.5333 320.722 50.4C320.722 68.5333 313.722 81.6667 299.722 89.8L324.322 135.8ZM257.122 60.4C260.055 60.4 262.322 59.4667 263.922 57.6C265.522 55.6 266.322 53.1333 266.322 50.2C266.322 47.2667 265.522 44.7333 263.922 42.6C262.455 40.3333 260.189 39.2 257.122 39.2H232.122V60.4H257.122ZM441.044 7.39999C443.044 3.79999 445.91 1.99999 449.644 1.99999H486.244C487.71 1.99999 488.977 2.53332 490.044 3.59999C491.11 4.66666 491.644 5.93333 491.644 7.39999V136.6C491.644 138.067 491.11 139.333 490.044 140.4C488.977 141.467 487.71 142 486.244 142H450.044C448.577 142 447.31 141.467 446.244 140.4C445.177 139.333 444.644 138.067 444.644 136.6V74.6L430.044 103.4C429.644 104.333 428.71 105.4 427.244 106.6C425.777 107.8 423.91 108.4 421.644 108.4H408.044C405.777 108.4 403.91 107.8 402.444 106.6C400.977 105.4 400.044 104.333 399.644 103.4L385.044 74.6V136.6C385.044 138.067 384.51 139.333 383.444 140.4C382.377 141.467 381.11 142 379.644 142H343.444C341.977 142 340.71 141.467 339.644 140.4C338.577 139.333 338.044 138.067 338.044 136.6V7.39999C338.044 5.93333 338.577 4.66666 339.644 3.59999C340.71 2.53332 341.977 1.99999 343.444 1.99999H380.044C383.777 1.99999 386.644 3.79999 388.644 7.39999L414.844 55.4L441.044 7.39999ZM555.966 135.2C554.232 139.733 551.232 142 546.966 142H509.166C507.966 142 506.899 141.6 505.966 140.8C505.166 139.867 504.766 138.8 504.766 137.6L504.966 136.4L548.566 8.59999C549.099 6.86666 550.099 5.33333 551.566 3.99999C553.032 2.66666 555.032 1.99999 557.566 1.99999H613.166C615.699 1.99999 617.699 2.66666 619.166 3.99999C620.632 5.33333 621.632 6.86666 622.166 8.59999L665.766 136.4L665.966 137.6C665.966 138.8 665.499 139.867 664.566 140.8C663.766 141.6 662.766 142 661.566 142H623.766C619.499 142 616.499 139.733 614.766 135.2L609.766 121.2H560.966L555.966 135.2ZM585.366 40.6L571.166 82.2H599.566L585.366 40.6ZM817.288 1.99999C818.754 1.99999 820.021 2.53332 821.088 3.59999C822.154 4.66666 822.688 5.93333 822.688 7.39999V136.6C822.688 138.067 822.154 139.333 821.088 140.4C820.021 141.467 818.754 142 817.288 142H785.088C781.888 142 779.221 140.6 777.088 137.8L733.488 82.2V136.6C733.488 138.067 732.954 139.333 731.888 140.4C730.821 141.467 729.554 142 728.088 142H690.888C689.421 142 688.154 141.467 687.088 140.4C686.021 139.333 685.488 138.067 685.488 136.6V7.39999C685.488 5.93333 686.021 4.66666 687.088 3.59999C688.154 2.53332 689.421 1.99999 690.888 1.99999H723.288C726.488 1.99999 729.088 3.33333 731.088 6L774.688 66.2V7.39999C774.688 5.93333 775.221 4.66666 776.288 3.59999C777.354 2.53332 778.621 1.99999 780.088 1.99999H817.288ZM895.809 135.2C894.076 139.733 891.076 142 886.809 142H849.009C847.809 142 846.743 141.6 845.809 140.8C845.009 139.867 844.609 138.8 844.609 137.6L844.809 136.4L888.409 8.59999C888.943 6.86666 889.943 5.33333 891.409 3.99999C892.876 2.66666 894.876 1.99999 897.409 1.99999H953.009C955.543 1.99999 957.543 2.66666 959.009 3.99999C960.476 5.33333 961.476 6.86666 962.009 8.59999L1005.61 136.4L1005.81 137.6C1005.81 138.8 1005.34 139.867 1004.41 140.8C1003.61 141.6 1002.61 142 1001.41 142H963.609C959.343 142 956.343 139.733 954.609 135.2L949.609 121.2H900.809L895.809 135.2ZM925.209 40.6L911.009 82.2H939.409L925.209 40.6ZM1157.13 1.99999C1158.6 1.99999 1159.86 2.53332 1160.93 3.59999C1162 4.66666 1162.53 5.93333 1162.53 7.39999V136.6C1162.53 138.067 1162 139.333 1160.93 140.4C1159.86 141.467 1158.6 142 1157.13 142H1124.93C1121.73 142 1119.06 140.6 1116.93 137.8L1073.33 82.2V136.6C1073.33 138.067 1072.8 139.333 1071.73 140.4C1070.66 141.467 1069.4 142 1067.93 142H1030.73C1029.26 142 1028 141.467 1026.93 140.4C1025.86 139.333 1025.33 138.067 1025.33 136.6V7.39999C1025.33 5.93333 1025.86 4.66666 1026.93 3.59999C1028 2.53332 1029.26 1.99999 1030.73 1.99999H1063.13C1066.33 1.99999 1068.93 3.33333 1070.93 6L1114.53 66.2V7.39999C1114.53 5.93333 1115.06 4.66666 1116.13 3.59999C1117.2 2.53332 1118.46 1.99999 1119.93 1.99999H1157.13Z" fill="black"/>
</svg>
